<?xml version="1.0" encoding="utf-8"?>
<!-- Generator: Adobe Illustrator 23.0.0, SVG Export Plug-In . SVG Version: 6.00 Build 0)  -->
<svg version="1.1" id="Слой_1" xmlns="http://www.w3.org/2000/svg" xmlns:xlink="http://www.w3.org/1999/xlink" x="0px" y="0px"
	 viewBox="0 0 42.9 42.3" style="enable-background:new 0 0 42.9 42.3;" xml:space="preserve">
<style type="text/css">
	.st0{fill:none;stroke:#D3D3D3;stroke-linecap:round;stroke-linejoin:round;}
</style>
<g>
	<path class="st0" d="M20.5,33.6c1.7,0.1,3.3-0.1,4.9-0.6c1.7-0.5,1.6,0.8,1.4,1.6c-0.4,1.5,0.5,3.1,2,3.6c1.5,0.4,3.1-0.5,3.6-2
		c0.4-1.5-0.5-3.1-2-3.6c0,0,0,0,0,0c-0.8-0.2-1.8-1.1-0.6-2c1.2-1.1,2.2-2.5,3-4c0.7-1.3,1.6-0.5,2,0.3c0.8,1.4,2.5,1.9,3.9,1.1
		c0.7-0.4,1.2-1,1.4-1.8c0.2-0.7,0.1-1.5-0.3-2.2c-0.8-1.4-2.6-1.8-3.9-1.1c0,0,0,0,0,0c-0.7,0.4-2,1.4-1.9-0.8"/>
	<path class="st0" d="M22.3,8.7c2.1,0.1,1.3-1.2,0.9-1.9c-0.8-1.4-0.3-3.1,1.1-3.9c0.7-0.4,1.5-0.5,2.2-0.3c1.5,0.4,2.4,2,2,3.5
		c-0.2,0.7-0.7,1.4-1.4,1.8c-0.7,0.4-1.5,1.4-0.3,2c1.5,0.8,2.8,1.8,4,3c1.2,1.3,1.8,0.1,2-0.6c0.4-1.5,2-2.4,3.5-2s2.4,2,2,3.5
		c-0.4,1.5-2,2.4-3.5,2c0,0,0,0,0,0c-0.8-0.2-2.1-0.1-1.6,1.4c0.5,1.7,0.7,3.4,0.6,5.1"/>
	<path class="st0" d="M20.6,33.6c-2.1-0.1-1.3,1.2-0.9,1.9c0.8,1.4,0.3,3.1-1.1,3.9c-0.7,0.4-1.4,0.5-2.2,0.3
		c-0.7-0.2-1.4-0.7-1.7-1.3c-0.8-1.4-0.3-3.1,1-3.9c0,0,0,0,0,0c0.7-0.4,1.6-1.4,0.3-2c-1.5-0.8-2.8-1.8-4-3c-1.3-1.5-1.8-0.1-2,0.7
		c-0.4,1.5-2,2.4-3.5,2c-1.5-0.4-2.4-2-2-3.5c0.4-1.5,2-2.4,3.5-2c0,0,0,0,0,0c0.8,0.2,2.1,0,1.6-1.4C9.2,23.6,9,21.9,9,20.3"/>
	<path class="st0" d="M22.4,8.7c-1.7-0.1-3.4,0.1-5,0.6C15.7,10,15.8,8.5,16,7.8c0.4-1.5-0.5-3.1-2-3.6s-3.1,0.5-3.6,2
		c-0.4,1.5,0.5,3.1,2,3.6c0,0,0,0,0,0c0.8,0.2,1.9,1,0.6,2c-1.2,1.2-2.2,2.5-3,4c-0.7,1.3-1.7,0.4-2-0.3c-0.8-1.4-2.6-1.9-3.9-1.1
		S2.4,17,3.2,18.4c0.8,1.4,2.6,1.9,3.9,1.1c0,0,0,0,0,0c0.7-0.4,2-1.4,1.9,0.8"/>
</g>
</svg>
