<?xml version="1.0" encoding="utf-8"?>
<!-- Generator: Adobe Illustrator 23.0.0, SVG Export Plug-In . SVG Version: 6.00 Build 0)  -->
<svg version="1.1" id="Слой_1" xmlns="http://www.w3.org/2000/svg" xmlns:xlink="http://www.w3.org/1999/xlink" x="0px" y="0px"
	 viewBox="0 0 42.9 42.3" style="enable-background:new 0 0 42.9 42.3;" xml:space="preserve">
<style type="text/css">
	.st0{fill:none;stroke:#D3D3D3;stroke-linecap:round;stroke-linejoin:round;}
</style>
<g>
	<path class="st0" d="M16.8,33.2L13,39.8c-0.7,1.3-2.3,1.7-3.5,1c0,0,0,0,0,0l0,0c-1.3-0.7-1.7-2.3-1-3.5c0,0,0,0,0,0l3.8-6.6l0,0
		c-1.2-1.8-1.3-4.2-0.2-6.2L23.8,4.1c1.6-2.8,5.2-3.8,8-2.2c0,0,0,0,0,0l0,0c2.8,1.6,3.8,5.2,2.2,8c0,0,0,0,0,0L22.2,30.3
		C21.1,32.2,19,33.4,16.8,33.2z"/>
	<line class="st0" x1="16.6" y1="28.3" x2="29.4" y2="6.1"/>
	<line class="st0" x1="24.8" y1="6.5" x2="26.3" y2="7.3"/>
	<line class="st0" x1="24.2" y1="10.1" x2="24.6" y2="10.3"/>
	<line class="st0" x1="21.4" y1="12.4" x2="22.9" y2="13.3"/>
	<line class="st0" x1="20.8" y1="16" x2="21.2" y2="16.2"/>
	<line class="st0" x1="18" y1="18.3" x2="19.5" y2="19.2"/>
	<line class="st0" x1="17.4" y1="21.9" x2="17.8" y2="22.1"/>
	<line class="st0" x1="14.6" y1="24.2" x2="16.1" y2="25.1"/>
</g>
</svg>
