<?xml version="1.0" encoding="utf-8"?>
<!-- Generator: Adobe Illustrator 23.0.0, SVG Export Plug-In . SVG Version: 6.00 Build 0)  -->
<svg version="1.1" id="Слой_1" xmlns="http://www.w3.org/2000/svg" xmlns:xlink="http://www.w3.org/1999/xlink" x="0px" y="0px"
	 viewBox="0 0 42.9 42.3" style="enable-background:new 0 0 42.9 42.3;" xml:space="preserve">
<style type="text/css">
	.st0{fill:none;stroke:#D3D3D3;stroke-linecap:round;stroke-linejoin:round;}
</style>
<g>
	<path class="st0" d="M13.2,12.4l-2.8,6c1.9,1.9,1.9,5,0,6.9L3.7,32c-1.9,1.9-1.9,5,0,6.9s5,1.9,6.8,0l6.7-6.7c1.9-1.9,5-1.9,6.8,0
		c0,0,0,0,0,0l6-2.8"/>
	<path class="st0" d="M21.8,12.2c4.7,0.1,8.5,3.9,8.6,8.6"/>
	<path class="st0" d="M21.9,6.9c7.6,0.1,13.7,6.3,13.8,13.8"/>
	<path class="st0" d="M22,2c10.2,0.2,18.4,8.4,18.6,18.6"/>
	<path class="st0" d="M11.7,15.7c3.6,1.1,6.8,3.1,9.5,5.7c2.6,2.6,4.6,5.9,5.7,9.5"/>
	<path class="st0" d="M13.2,12.4c8,2.7,14.3,9,17,17"/>
	<line class="st0" x1="13.7" y1="28.9" x2="18" y2="24.6"/>
</g>
</svg>
