<?xml version="1.0" encoding="utf-8"?>
<!-- Generator: Adobe Illustrator 23.0.0, SVG Export Plug-In . SVG Version: 6.00 Build 0)  -->
<svg version="1.1" id="Слой_1" xmlns="http://www.w3.org/2000/svg" xmlns:xlink="http://www.w3.org/1999/xlink" x="0px" y="0px"
	 viewBox="0 0 42.9 42.3" style="enable-background:new 0 0 42.9 42.3;" xml:space="preserve">
<style type="text/css">
	.st0{fill:none;stroke:#D3D3D3;stroke-linecap:round;stroke-linejoin:round;}
</style>
<g>
	<path class="st0" d="M23.9,4.5V11c0.5,0.1,1,0.3,1.5,0.6c0.4,0.3,0.8,0.5,1.2,0.9c0,0,1.8-1.4,4.9,0.8s6.8,7,9.2,14.6
		s0.4,9.8-0.4,10c-1.4,0.4-4-0.3-9.6-3.4s-6.7-5.9-6.7-9.2c-0.1-3.4,0.3-6.8,0.9-10.1c-0.9-0.8-2.1-1.2-3.4-1.1
		c-1.2,0.1-2.4,0.5-3.4,1.1c0.7,3.3,1,6.7,0.9,10.1c0,3.3-1.2,6.1-6.7,9.3s-8.2,3.8-9.7,3.4c-0.8-0.2-2.8-2.4-0.4-9.9
		s6.1-12.3,9.2-14.5s4.8-0.8,4.8-0.8c0.4-0.3,0.8-0.6,1.3-0.9c0.4-0.2,0.9-0.4,1.4-0.6V4.5"/>
</g>
</svg>
