<?xml version="1.0" encoding="utf-8"?>
<!-- Generator: Adobe Illustrator 23.0.0, SVG Export Plug-In . SVG Version: 6.00 Build 0)  -->
<svg version="1.1" id="Слой_1" xmlns="http://www.w3.org/2000/svg" xmlns:xlink="http://www.w3.org/1999/xlink" x="0px" y="0px"
	 viewBox="0 0 42.9 42.3" style="enable-background:new 0 0 42.9 42.3;" xml:space="preserve">
<style type="text/css">
	.st0{fill:none;stroke:#D3D3D3;stroke-linecap:round;stroke-linejoin:round;}
</style>
<g>
	<path class="st0" d="M11.1,5.2c1.4-2.7,4.3-4.4,7.4-4.3c4.1-0.1,8,1.6,10.7,4.7c2,2.2,3.5,5.6,3.5,10.8s-0.6,8.1-2.3,11.2
		c-1.7,3.1-4,3.3-6.3,6.1s-3,7.7-8.3,7.7c-2.5,0.1-4.7-1.5-5.5-3.8"/>
	<path class="st0" d="M28.5,14.5c1.3,5.1-0.3,12.3-7.4,15.2"/>
	<path class="st0" d="M15,16.9c-0.6-1.6-0.9-3.3-0.9-4.9c0-2.5,1.2-5.5,4.2-5.5c3.6,0,7,1.9,8.9,5.1"/>
	<path class="st0" d="M16.2,14.8c0.9,0.9,2.1,1.6,3.4,2c2,0.6,4.7,0.6,4.7,4s-2.3,4.4-4.1,5s-4.7,0.4-6.3,4"/>
</g>
</svg>
