<?xml version="1.0" encoding="utf-8"?>
<!-- Generator: Adobe Illustrator 23.0.0, SVG Export Plug-In . SVG Version: 6.00 Build 0)  -->
<svg version="1.1" id="Слой_1" xmlns="http://www.w3.org/2000/svg" xmlns:xlink="http://www.w3.org/1999/xlink" x="0px" y="0px"
	 viewBox="0 0 42.9 42.3" style="enable-background:new 0 0 42.9 42.3;" xml:space="preserve">
<style type="text/css">
	.st0{fill:none;stroke:#D3D3D3;stroke-linecap:round;stroke-linejoin:round;}
	.st1{fill:#D3D3D3;}
</style>
<g>
	<path class="st0" d="M24.2,4.4c-0.7-0.4-0.9-1.3-0.5-1.9c0,0,0,0,0,0l0,0c0.4-0.7,1.2-0.9,1.9-0.5l9.3,5.4c0.7,0.4,0.9,1.3,0.5,1.9
		c0,0,0,0,0,0l0,0c-0.4,0.7-1.2,0.9-1.9,0.5L17.3,37.8c-1.5,2.6-4.8,3.5-7.3,2l0,0c-2.6-1.5-3.5-4.8-2-7.4L24.2,4.4z"/>
	<line class="st0" x1="26.7" y1="5.8" x2="31" y2="8.3"/>
	<line class="st0" x1="17.2" y1="16.4" x2="29.7" y2="16.4"/>
	<circle class="st1" cx="18.3" cy="21" r="0.6"/>
	<circle class="st1" cx="19.5" cy="24.5" r="0.6"/>
	<circle class="st1" cx="23.5" cy="18.5" r="0.6"/>
	<circle class="st1" cx="21.5" cy="22.5" r="0.6"/>
	<circle class="st1" cx="15.5" cy="26.5" r="0.6"/>
	<circle class="st1" cx="18.5" cy="29.5" r="0.6"/>
	<circle class="st1" cx="15.5" cy="29.5" r="0.6"/>
	<circle class="st1" cx="11.5" cy="30.5" r="0.6"/>
	<circle class="st1" cx="13.8" cy="37.3" r="0.6"/>
	<circle class="st1" cx="10.8" cy="36.3" r="0.6"/>
	<circle class="st1" cx="13.5" cy="33.5" r="0.6"/>
</g>
</svg>
