<?xml version="1.0" encoding="utf-8"?>
<!-- Generator: Adobe Illustrator 23.0.0, SVG Export Plug-In . SVG Version: 6.00 Build 0)  -->
<svg version="1.1" id="Слой_1" xmlns="http://www.w3.org/2000/svg" xmlns:xlink="http://www.w3.org/1999/xlink" x="0px" y="0px"
	 viewBox="0 0 42.9 42.3" style="enable-background:new 0 0 42.9 42.3;" xml:space="preserve">
<style type="text/css">
	.st0{fill:none;stroke:#D3D3D3;stroke-linecap:round;stroke-linejoin:round;}
</style>
<g>
	<path class="st0" d="M3.9,14.4L14.7,3.6c1-1,2.5-1,3.5,0l0.1,0.1c1,1,1,2.5,0,3.5L7.5,18c-1,1-2.5,1-3.5,0l-0.1-0.1
		C2.9,16.9,2.9,15.4,3.9,14.4z"/>
	<line class="st0" x1="14.3" y1="11.2" x2="24.6" y2="21.5"/>
	<line class="st0" x1="21.8" y1="24.3" x2="11.5" y2="14"/>
	<path class="st0" d="M27,21.6l12.2,12.2c0.7,0.7,0.7,1.8,0,2.5l-2.7,2.7c-0.7,0.7-1.8,0.7-2.5,0L21.9,26.7c-0.7-0.7-0.7-1.8,0-2.5
		l2.7-2.7C25.2,20.9,26.3,20.9,27,21.6z"/>
	<line class="st0" x1="5.7" y1="12.6" x2="9.3" y2="16.2"/>
	<line class="st0" x1="13" y1="5.3" x2="16.6" y2="8.9"/>
	<line class="st0" x1="9.7" y1="12.2" x2="12.5" y2="9.4"/>
	<line class="st0" x1="22.9" y1="27.7" x2="25.6" y2="24.9"/>
	<line class="st0" x1="33.1" y1="38" x2="35.9" y2="35.2"/>
</g>
</svg>
