<?xml version="1.0" encoding="utf-8"?>
<!-- Generator: Adobe Illustrator 23.0.0, SVG Export Plug-In . SVG Version: 6.00 Build 0)  -->
<svg version="1.1" id="Слой_1" xmlns="http://www.w3.org/2000/svg" xmlns:xlink="http://www.w3.org/1999/xlink" x="0px" y="0px"
	 viewBox="0 0 42.9 42.3" style="enable-background:new 0 0 42.9 42.3;" xml:space="preserve">
<style type="text/css">
	.st0{fill:none;stroke:#D3D3D3;stroke-linecap:round;stroke-linejoin:round;}
</style>
<g>
	<polyline class="st0" points="0.9,18.7 21.4,3.4 41.9,18.7 	"/>
	<polyline class="st0" points="37.2,15.5 36.3,38.9 6.6,38.9 5.6,15.5 	"/>
	<polyline class="st0" points="31,10.5 31,6.8 34.6,6.8 34.6,13.2 	"/>
	<path class="st0" d="M15.4,22.8L15.4,22.8c2.4,0,4.3,1.9,4.3,4.3l0,0v5.8l0,0h-8.6l0,0v-5.8C11.1,24.7,13,22.8,15.4,22.8
		C15.4,22.8,15.4,22.8,15.4,22.8z"/>
	<path class="st0" d="M23.2,38.9V27.1c0-2.4,1.9-4.3,4.3-4.3l0,0l0,0c2.4,0,4.3,1.9,4.3,4.3l0,0v11.8"/>
	<circle class="st0" cx="21.4" cy="14.1" r="3"/>
	<line class="st0" x1="11.3" y1="25.9" x2="19.4" y2="25.9"/>
	<line class="st0" x1="18.4" y1="14.1" x2="24.5" y2="14.1"/>
	<line class="st0" x1="15.4" y1="25.9" x2="15.4" y2="32.8"/>
</g>
</svg>
