<?xml version="1.0" encoding="utf-8"?>
<!-- Generator: Adobe Illustrator 23.0.0, SVG Export Plug-In . SVG Version: 6.00 Build 0)  -->
<svg version="1.1" id="Слой_1" xmlns="http://www.w3.org/2000/svg" xmlns:xlink="http://www.w3.org/1999/xlink" x="0px" y="0px"
	 viewBox="0 0 42.9 42.3" style="enable-background:new 0 0 42.9 42.3;" xml:space="preserve">
<style type="text/css">
	.st0{fill:none;stroke:#D3D3D3;stroke-linecap:round;stroke-linejoin:round;}
</style>
<g>
	<path class="st0" d="M15.6,0.6c1.8,3.1,4.1,5.8,6.7,8.3c3.5,3.2,7.4,6.1,8.9,9.7c0.2,0.5,1.4,0.3,1.6,1.7s-1.1,1.7-1.1,2.1
		c0.5,4.1-0.7,7.4-6.4,11c-2.2,1.3-3.9,1.3-5,2.1c-2,1.5-2.1,3.5-2.3,6.2"/>
	<path class="st0" d="M30.2,16.7c-0.5,0.7-0.8,1.4-0.9,2.2c-0.4,2.2,0.7,4.4,2.6,5.4"/>
	<path class="st0" d="M17.7,34.7c-4.1-1.3-7-4.8-7.8-9"/>
</g>
</svg>
