<?xml version="1.0" encoding="utf-8"?>
<!-- Generator: Adobe Illustrator 23.0.0, SVG Export Plug-In . SVG Version: 6.00 Build 0)  -->
<svg version="1.1" id="Слой_1" xmlns="http://www.w3.org/2000/svg" xmlns:xlink="http://www.w3.org/1999/xlink" x="0px" y="0px"
	 viewBox="0 0 42.9 42.3" style="enable-background:new 0 0 42.9 42.3;" xml:space="preserve">
<style type="text/css">
	.st0{fill:none;stroke:#D3D3D3;stroke-linecap:round;stroke-linejoin:round;}
</style>
<g>
	<path class="st0" d="M34.9,37c-0.7-1-1.5-1.9-2.4-2.7c-2.4-2-4.5-4.2-6.3-6.7c-1.5-2.3-2.8-4.7-4-7.2c-0.2-0.6-0.5-1.3,0-1.7
		s1.1-0.2,1.9,0.4s1.7,2.3,2.5,3.1c0.5,0.5,1.2,0.9,1.8,1.2c-0.1-1.5-0.4-3-0.9-4.4c-0.9-2.1-1.5-4.3-1.9-6.5
		c-0.2-1.5-0.1-2.9,0.2-4.4c0.2-0.6,0.8-1.6,1.4-0.8c0.5,1.1,0.9,2.3,1.2,3.5c0.2,0.7,1.6,4.4,1.9,5.4s1.1,2.9,1.1,2.9"/>
	<path class="st0" d="M28.1,9.9C28,8.9,28,8,28,7c0.1-0.9,0.1-1.4,0.8-1.6c0.6-0.2,1.1,0.5,1.3,1.3s1.2,3.1,1.6,4
		c0.4,0.9,1.6,3.6,1.9,4.4s1,2.5,1,2.5"/>
	<path class="st0" d="M30.3,7c0-0.3,0.1-0.6,0.3-0.8c0.3-0.2,0.6-0.3,1,0.2c0.6,1.2,1.4,2.3,2.2,3.3c0.9,0.8,1.6,1.9,2,3
		c0.4,1,2.6,5.1,2.6,5.1"/>
	<path class="st0" d="M32.4,7.9c0,0,0-0.4,0.2-0.4C33,7.4,33.4,7.6,33.5,8c0.6,0.8,1.3,1.6,2.1,2.2c1,0.7,1.8,1.7,2.3,2.8
		c0.5,1.3,1.1,2.6,1.8,3.8c0.8,1.1,1.2,2.4,1.3,3.7c0.1,1.3-0.2,6.8-0.1,7.9c0.2,2,0.7,3.9,1.5,5.8"/>
	<path class="st0" d="M8,37c0.7-1,1.5-1.9,2.4-2.7c2.4-2,4.5-4.2,6.3-6.7c1.5-2.3,2.8-4.7,4-7.2c0.2-0.6,0.5-1.3,0-1.7
		s-1.1-0.2-1.9,0.4s-1.7,2.3-2.5,3.1c-0.5,0.5-1.2,0.9-1.8,1.2c0.1-1.5,0.4-3,0.9-4.4c0.9-2.1,1.5-4.3,1.9-6.5
		c0.2-1.5,0.1-2.9-0.3-4.3c-0.2-0.6-0.9-1.6-1.4-0.8c-0.5,1.1-0.9,2.3-1.1,3.5c-0.2,0.7-1.6,4.4-1.9,5.4s-1.1,2.9-1.1,2.9"/>
	<path class="st0" d="M14.7,9.9C14.8,8.9,14.9,8,14.8,7c-0.1-0.9-0.1-1.4-0.8-1.6c-0.6-0.2-1.1,0.5-1.3,1.2s-1.2,3.1-1.6,4
		S9.6,14.3,9.2,15l-1,2.5"/>
	<path class="st0" d="M12.6,7c0-0.3-0.1-0.6-0.3-0.8c-0.3-0.2-0.6-0.3-1,0.2c-0.6,1.2-1.4,2.3-2.2,3.3c-0.9,0.8-1.6,1.9-2.1,3
		c-0.4,1-2.6,5.1-2.6,5.1"/>
	<path class="st0" d="M10.5,7.9c0,0,0-0.4-0.2-0.4C9.9,7.4,9.5,7.6,9.4,8c-0.6,0.8-1.3,1.6-2.1,2.2c-1,0.7-1.7,1.7-2.3,2.8
		c-0.5,1.3-1.1,2.6-1.8,3.8c-0.8,1.1-1.2,2.4-1.3,3.7c-0.1,1.3,0.2,6.8,0.1,7.9c-0.2,2-0.7,3.9-1.5,5.8"/>
</g>
</svg>
