<?xml version="1.0" encoding="utf-8"?>
<!-- Generator: Adobe Illustrator 23.0.0, SVG Export Plug-In . SVG Version: 6.00 Build 0)  -->
<svg version="1.1" id="Слой_1" xmlns="http://www.w3.org/2000/svg" xmlns:xlink="http://www.w3.org/1999/xlink" x="0px" y="0px"
	 viewBox="0 0 42.9 42.3" style="enable-background:new 0 0 42.9 42.3;" xml:space="preserve">
<style type="text/css">
	.st0{fill:none;stroke:#D3D3D3;stroke-linecap:round;stroke-linejoin:round;}
</style>
<g>
	<path class="st0" d="M30.6,9c-1.7,3.2-4.7,5.5-8.3,6.3c-0.3,1.4-1.1,2.8-2.1,3.8c0.2,1.4,0.1,2.9-0.2,4.3c1.3,0.9,2.4,2.1,3.1,3.5
		c2.1-0.2,4.3,0.5,5.9,1.9c1.5-0.5,10.5-3.6,10.8,6.9"/>
	<path class="st0" d="M26.7,6.4c-0.8,1.4-2,2.5-3.6,3.1c-1.3-1.6-2.8-4.1-7.8-4.1S3.1,9.8,3.1,20.3s9.6,16.5,17,16.5
		s9.7-2.9,9.7-2.9c0.8,0.4,1.7,0.5,2.6,0.2c0.7-0.3,1.3-0.8,1.6-1.4c1.5,0.2,2.5,1.4,2.6,2.9"/>
</g>
</svg>
