<?xml version="1.0" encoding="utf-8"?>
<!-- Generator: Adobe Illustrator 23.0.0, SVG Export Plug-In . SVG Version: 6.00 Build 0)  -->
<svg version="1.1" id="Слой_1" xmlns="http://www.w3.org/2000/svg" xmlns:xlink="http://www.w3.org/1999/xlink" x="0px" y="0px"
	 viewBox="0 0 42.9 42.3" style="enable-background:new 0 0 42.9 42.3;" xml:space="preserve">
<style type="text/css">
	.st0{fill:none;stroke:#D3D3D3;stroke-linecap:round;stroke-linejoin:round;}
</style>
<g>
	<path class="st0" d="M4,22.5h6.7l2-5.6l3,8.6l2-5.6l1,2.7h4.3"/>
	<line class="st0" x1="38.8" y1="29" x2="4" y2="29"/>
	<path class="st0" d="M8,4.8h26.9c2.2,0,4,1.8,4,4v24.7c0,2.2-1.8,4-4,4H8c-2.2,0-4-1.8-4-4V8.8C4,6.6,5.8,4.8,8,4.8z"/>
	<circle class="st0" cx="9.2" cy="33.3" r="1.8"/>
	<path class="st0" d="M32.8,32.3h1.6c0.5,0,1,0.4,1,1v0c0,0.5-0.4,1-1,1h-1.6c-0.5,0-1-0.4-1-1v0C31.9,32.7,32.3,32.3,32.8,32.3z"/>
	<path class="st0" d="M26.7,32.3h1.6c0.5,0,1,0.4,1,1v0c0,0.5-0.4,1-1,1h-1.6c-0.5,0-1-0.4-1-1v0C25.7,32.7,26.2,32.3,26.7,32.3z"/>
	<path class="st0" d="M27.1,12.2c0,0-1.6-0.4-1.6-1.6c0-0.8,0.6-1.5,1.4-1.5c0.1,0,0.1,0,0.2,0c0.9,0,1.6,0.6,1.6,1.5c0,0,0,0,0,0.1
		c0,1.1-1.4,1.4-2,1.6c-0.8,0.2-1.4,0.9-1.5,1.7c0,0.8,0.6,1.6,1.5,1.6c0.1,0,0.2,0,0.3,0c1,0,1.9-0.3,1.9-1.4
		c-0.1-0.9-0.8-1.7-1.6-1.9"/>
	<path class="st0" d="M34.2,9.1c0,0-3.3,0-3.6,3.2c-0.2,2.6,1.1,3.2,2.2,3.2c0.6,0,1.6-0.4,1.6-2.2c0.1-0.9-0.6-1.7-1.5-1.7
		c-0.1,0-0.1,0-0.2,0c-0.9,0-1.7,0.6-2.1,1.5"/>
</g>
</svg>
