<?xml version="1.0" encoding="utf-8"?>
<!-- Generator: Adobe Illustrator 23.0.0, SVG Export Plug-In . SVG Version: 6.00 Build 0)  -->
<svg version="1.1" id="Слой_1" xmlns="http://www.w3.org/2000/svg" xmlns:xlink="http://www.w3.org/1999/xlink" x="0px" y="0px"
	 viewBox="0 0 42.9 42.3" style="enable-background:new 0 0 42.9 42.3;" xml:space="preserve">
<style type="text/css">
	.st0{fill:none;stroke:#D3D3D3;stroke-linecap:round;stroke-linejoin:round;}
</style>
<g>
	<path class="st0" d="M17.6,2.9c-0.4,0.8-1,1.5-1.7,2c-1.2,0.5-2.4,1.2-3.5,1.9c-1.1,0.8-2.3,1.5-3.6,2c-1.3,0.5-3.4,1.1-4.3,3.1
		c-0.7,1.4-1.1,2.8-1.3,4.4c-0.2,1.4-0.8,4-0.9,5.6C2,24,2,26.1,2.2,28.2"/>
	<path class="st0" d="M8.9,16.4c0.1,1.2,0.4,2.3,0.9,3.3c0.9,2.3,1.5,4.7,1.8,7.2c0.3,1.9,0.5,3.9,0.6,5.8c0,2.2-0.2,4.5-0.4,6.7"/>
	<path class="st0" d="M10.6,21.6c0,0,0,4.1-1.5,6.6"/>
	<path class="st0" d="M17.8,9.1c0,0,0.2,5.4-0.8,7.3c-0.8,1.3-1.9,2.3-3.3,3"/>
	<path class="st0" d="M25.2,2.9c0.4,0.8,1,1.5,1.7,2c1.2,0.5,2.4,1.2,3.5,1.9c1.1,0.8,2.3,1.5,3.6,2c1.3,0.5,3.4,1.1,4.3,3.1
		c0.7,1.4,1.1,2.8,1.3,4.4c0.2,1.4,0.8,4,0.9,5.6c0.2,2.1,0.2,4.3,0,6.4"/>
	<path class="st0" d="M34,16.4c-0.1,1.2-0.4,2.3-1,3.3c-0.9,2.3-1.5,4.7-1.9,7.2c-0.3,1.9-0.5,3.9-0.6,5.9c0,2.2,0.2,4.4,0.5,6.6"/>
	<path class="st0" d="M32.3,21.6c0,0,0,4.1,1.5,6.6"/>
	<path class="st0" d="M25.1,9.1c0,0-0.2,5.4,0.8,7.3c0.8,1.3,1.9,2.3,3.3,3"/>
	<line class="st0" x1="21.5" y1="17.9" x2="21.5" y2="23.7"/>
	<line class="st0" x1="21.5" y1="28.6" x2="21.5" y2="38.8"/>
</g>
</svg>
