<?xml version="1.0" encoding="utf-8"?>
<!-- Generator: Adobe Illustrator 23.0.0, SVG Export Plug-In . SVG Version: 6.00 Build 0)  -->
<svg version="1.1" id="Слой_1" xmlns="http://www.w3.org/2000/svg" xmlns:xlink="http://www.w3.org/1999/xlink" x="0px" y="0px"
	 viewBox="0 0 42.9 42.3" style="enable-background:new 0 0 42.9 42.3;" xml:space="preserve">
<style type="text/css">
	.st0{fill:none;stroke:#D3D3D3;stroke-linecap:round;stroke-linejoin:round;}
</style>
<g>
	<path class="st0" d="M22.9,0.9c0,1.6-0.5,3.1-1.2,4.5c-1.2,2-2.4,2.7-4.7,3.6c-2.2,1-3.4,3.5-2.6,5.9c0.3,1.7,1.5,3,3.1,3.5
		c1.1,0.3,2.8,0,4.8-0.9s3.1-0.2,3.1-0.2"/>
	<path class="st0" d="M22.8,17.4c0.8,1.3,2.1,2.3,3.7,2.6c2.1,0.7,4.3-0.4,5-2.5c0,0,0-0.1,0-0.1c0.4-1.6-0.5-3.5-1.4-4.9
		s-2-3.1-1.4-5.1c0.5-1.6,1-3.1,1.7-4.6"/>
	<path class="st0" d="M21.7,25.7c-0.9-0.5-1.6-1.2-2.1-2c-1-1.5-1.4-2.5-3.1-3c-2.1-0.6-4.3,0.7-4.9,2.9c0,0.1,0,0.2-0.1,0.3
		c-0.8,2.9,0.8,4.4,1.5,5.4c1.1,1.5,1.5,3.4,1.1,5.3c-0.5,1.6-1.1,3.1-1.9,4.6"/>
	<path class="st0" d="M20,24.2c0,0,2.7-1.9,5.3-1.2c2.3,0.6,3.7,2.8,3.1,5.1c0,0.1-0.1,0.2-0.1,0.4c-0.6,2.5-2,3.5-4.2,4.5
		c-1.4,0.6-2.5,1.9-2.9,3.4c-0.4,1.6-0.7,3.3-0.9,5"/>
</g>
</svg>
