<?xml version="1.0" encoding="utf-8"?>
<!-- Generator: Adobe Illustrator 23.0.0, SVG Export Plug-In . SVG Version: 6.00 Build 0)  -->
<svg version="1.1" id="Слой_1" xmlns="http://www.w3.org/2000/svg" xmlns:xlink="http://www.w3.org/1999/xlink" x="0px" y="0px"
	 viewBox="0 0 42.9 42.3" style="enable-background:new 0 0 42.9 42.3;" xml:space="preserve">
<style type="text/css">
	.st0{fill:none;stroke:#D3D3D3;stroke-linecap:round;stroke-linejoin:round;}
</style>
<g>
	<path class="st0" d="M13.4,14.7c-2.1-1.2-3.4-3.4-3.2-5.8C10,6.4,11.3,4.1,13.4,3c2.1,1.2,3.3,3.4,3.2,5.8c0,0.4,0,0.8-0.1,1.2"/>
	<path class="st0" d="M13.4,14.6c0.3-2.4,1.9-4.4,4.2-5.2c2.2-1,4.7-0.8,6.6,0.8c-0.3,2.4-1.9,4.4-4.1,5.2c-0.7,0.3-1.5,0.5-2.3,0.6
		"/>
	<path class="st0" d="M13.4,14.6c2.4-0.2,4.7,1,5.9,3.1c1.4,1.9,1.6,4.5,0.5,6.7c-2.4,0.2-4.7-1-5.9-3.1c-0.2-0.3-0.4-0.6-0.5-0.9"
		/>
	<path class="st0" d="M13.4,14.6c1.1,2.1,0.9,4.7-0.6,6.7c-1.2,2.1-3.5,3.3-5.9,3.1c-1.1-2.1-0.9-4.7,0.5-6.6c0.4-0.7,1-1.3,1.6-1.8
		"/>
	<path class="st0" d="M13.4,14.6c-1.9,1.5-4.5,1.8-6.6,0.8c-2.3-0.8-3.9-2.8-4.2-5.2C4.4,8.7,7,8.4,9.2,9.5c0.4,0.1,0.7,0.3,1.1,0.5
		"/>
	<path class="st0" d="M13.5,39.3c-2.2,0-8.6-0.4-8.6-5.5s11-5.4,13-5.4c4.8,0,9.5,0.8,14,2.5c6.5,2.4,8.4,4.3,8.4,5.5s-2,3-7.9,3
		L13.5,39.3z"/>
	<path class="st0" d="M20.3,20.1l1.5-0.1c8.8-0.4,11.6,0,12.6,0.3s3.4,1.5,3.4,3.9s-2.5,3.3-4,3.6c-4.3,0.6-8.7,0.9-13,0.7
		c-2.6-0.1-5.2-0.7-7.5-1.7c-2.5-1.2-3.2-2.1-3.3-2.9"/>
	<path class="st0" d="M12.8,21.3c0.3-0.1,0.6-0.2,0.9-0.3"/>
	<path class="st0" d="M22.6,19.9c1.9-0.1,3.8-0.3,5.7-0.7c4-1,4.4-1.9,4.4-2.8c0.1-0.8-0.8-3.9-5.6-4.6c-1.1-0.2-2.1-0.3-3.2-0.3"/>
</g>
</svg>
