<?xml version="1.0" encoding="utf-8"?>
<!-- Generator: Adobe Illustrator 23.0.0, SVG Export Plug-In . SVG Version: 6.00 Build 0)  -->
<svg version="1.1" id="Слой_1" xmlns="http://www.w3.org/2000/svg" xmlns:xlink="http://www.w3.org/1999/xlink" x="0px" y="0px"
	 viewBox="0 0 42.9 42.3" style="enable-background:new 0 0 42.9 42.3;" xml:space="preserve">
<style type="text/css">
	.st0{fill:none;stroke:#D3D3D3;stroke-linecap:round;stroke-linejoin:round;}
</style>
<g>
	<path class="st0" d="M26.7,34L10.2,17.5c-0.8-0.8-0.8-2,0-2.8c0,0,0,0,0,0l4.7-4.7c0.8-0.8,2-0.8,2.8,0c0,0,0,0,0,0l16.6,16.6"/>
	<path class="st0" d="M10.6,14.1l-1.7-1.7c-0.6-0.6-0.7-1.7,0-2.3c0,0,0,0,0,0l1.5-1.5C11,8,12,8,12.7,8.6c0,0,0,0,0,0l1.7,1.7"/>
	<line class="st0" x1="32.9" y1="27.8" x2="37.8" y2="32.8"/>
	<line class="st0" x1="33" y1="37.6" x2="28.1" y2="32.6"/>
	<line class="st0" x1="24.6" y1="36.1" x2="36.4" y2="24.3"/>
	<line class="st0" x1="30.6" y1="40" x2="40.3" y2="30.3"/>
	<line class="st0" x1="9.7" y1="9.4" x2="2.6" y2="2.3"/>
	<line class="st0" x1="19.3" y1="11.4" x2="16.3" y2="14.4"/>
	<line class="st0" x1="22.3" y1="14.4" x2="20.3" y2="16.4"/>
	<line class="st0" x1="25.3" y1="17.4" x2="22.3" y2="20.4"/>
	<line class="st0" x1="28.2" y1="20.4" x2="26.2" y2="22.4"/>
	<line class="st0" x1="31.2" y1="23.4" x2="28.2" y2="26.3"/>
</g>
</svg>
