<?xml version="1.0" encoding="utf-8"?>
<!-- Generator: Adobe Illustrator 23.0.0, SVG Export Plug-In . SVG Version: 6.00 Build 0)  -->
<svg version="1.1" id="Слой_1" xmlns="http://www.w3.org/2000/svg" xmlns:xlink="http://www.w3.org/1999/xlink" x="0px" y="0px"
	 viewBox="0 0 42.9 42.3" style="enable-background:new 0 0 42.9 42.3;" xml:space="preserve">
<style type="text/css">
	.st0{fill:none;stroke:#D3D3D3;stroke-linecap:round;stroke-linejoin:round;}
</style>
<g>
	<path class="st0" d="M28.9,7.8c1.5,0,2.8,1.2,2.8,2.8c0,0,0,0,0,0"/>
	<path class="st0" d="M31.7,10.6c0-1.5,1.2-2.8,2.8-2.8"/>
	<path class="st0" d="M34.5,7.8c-1.5,0-2.8-1.2-2.8-2.8c0,0,0,0,0,0"/>
	<path class="st0" d="M31.7,5c0,1.5-1.2,2.8-2.8,2.8c0,0,0,0,0,0"/>
	<path class="st0" d="M17.2,10.4c1.3,0,2.3,1,2.3,2.3c0,0,0,0,0,0"/>
	<path class="st0" d="M19.5,12.7c0-1.3,1-2.3,2.3-2.3"/>
	<path class="st0" d="M21.8,10.4c-1.3,0-2.3-1-2.3-2.3c0,0,0,0,0,0"/>
	<path class="st0" d="M19.5,8.1c0,1.3-1,2.3-2.3,2.3c0,0,0,0,0,0"/>
	<path class="st0" d="M8.6,5.2c1.1,0,2,0.9,2,2"/>
	<path class="st0" d="M10.6,7.2c0-1.1,0.9-2,2-2"/>
	<path class="st0" d="M12.6,5.2c-1.1,0-2-0.9-2-2"/>
	<path class="st0" d="M10.6,3.2c0,1.1-0.9,2-2,2"/>
	<path class="st0" d="M30,34.9c1.2,0,2.1,1,2.1,2.1c0,1.2-1,2.1-2.1,2.1c-1.2,0-2.1-1-2.1-2.1C27.8,35.8,28.8,34.9,30,34.9
		C30,34.9,30,34.9,30,34.9z"/>
	<path class="st0" d="M21.4,34.9c1.2,0,2.1,1,2.1,2.1s-1,2.1-2.1,2.1c-1.2,0-2.1-1-2.1-2.1S20.3,34.9,21.4,34.9L21.4,34.9z"/>
	<path class="st0" d="M12.9,34.9c1.2,0,2.1,1,2.1,2.2c0,1.2-1,2.1-2.2,2.1c-1.2,0-2.1-1-2.1-2.1C10.8,35.8,11.7,34.9,12.9,34.9
		C12.9,34.9,12.9,34.9,12.9,34.9z"/>
	<path class="st0" d="M34.2,27.4c1.8,0,3.2,1.4,3.2,3.2c0,1.8-1.4,3.2-3.2,3.2c-1.8,0-3.2-1.4-3.2-3.2c0,0,0,0,0,0
		C31,28.8,32.5,27.4,34.2,27.4C34.2,27.4,34.2,27.4,34.2,27.4z"/>
	<path class="st0" d="M25.7,27.4c1.8,0,3.2,1.4,3.2,3.2c0,1.8-1.4,3.2-3.2,3.2c-1.8,0-3.2-1.4-3.2-3.2c0,0,0,0,0,0
		C22.5,28.8,23.9,27.4,25.7,27.4L25.7,27.4z"/>
	<path class="st0" d="M17.2,27.4c1.8,0,3.2,1.4,3.2,3.2c0,1.8-1.4,3.2-3.2,3.2S14,32.4,14,30.6c0,0,0,0,0,0
		C14,28.8,15.4,27.4,17.2,27.4z"/>
	<path class="st0" d="M8.7,27.4c1.8,0,3.2,1.4,3.2,3.2s-1.4,3.2-3.2,3.2s-3.2-1.4-3.2-3.2c0,0,0,0,0,0C5.5,28.8,6.9,27.4,8.7,27.4
		C8.7,27.4,8.7,27.4,8.7,27.4z"/>
	<path class="st0" d="M2.3,23.1c2.4-1.3,5.3-1.3,7.7,0c2.3,1.3,5.2,1.3,7.5,0c2.5-1.3,5.5-1.3,8,0c2.4,1.3,5.3,1.3,7.7,0
		c2.3-1.3,5.1-1.3,7.4,0"/>
	<path class="st0" d="M2.3,18.9h38.4"/>
</g>
</svg>
