<?xml version="1.0" encoding="utf-8"?>
<!-- Generator: Adobe Illustrator 23.0.0, SVG Export Plug-In . SVG Version: 6.00 Build 0)  -->
<svg version="1.1" id="Слой_1" xmlns="http://www.w3.org/2000/svg" xmlns:xlink="http://www.w3.org/1999/xlink" x="0px" y="0px"
	 viewBox="0 0 42.9 42.3" style="enable-background:new 0 0 42.9 42.3;" xml:space="preserve">
<style type="text/css">
	.st0{fill:none;stroke:#D3D3D3;stroke-linecap:round;stroke-linejoin:round;}
</style>
<g>
	<path class="st0" d="M11.2,15.8c0,2.4,2.2,2.6,2.2,5.4c0.1,2.5-1.8,4.7-4.4,4.8c-0.1,0-0.3,0-0.4,0c-2.9,0-7.6-3.1-7.6-10.2
		S5.8,5.6,8.7,5.6c2.5-0.1,4.7,1.9,4.7,4.5c0,0.1,0,0.3,0,0.4C13.4,13.2,11.2,13.4,11.2,15.8z"/>
	<path class="st0" d="M18.2,13.2c-2,2.8-7,2.5-7,2.5s7-0.4,7,8.5v12.5"/>
	<path class="st0" d="M31.6,15.8c0,2.4-2.2,2.6-2.2,5.4c-0.1,2.5,1.8,4.7,4.4,4.8c0.1,0,0.3,0,0.4,0c2.9,0,7.6-3.1,7.6-10.2
		S37,5.6,34.2,5.6c-2.5-0.1-4.7,1.9-4.7,4.5c0,0.1,0,0.3,0,0.4C29.4,13.2,31.6,13.4,31.6,15.8z"/>
	<path class="st0" d="M24.6,13.2c2,2.8,7,2.5,7,2.5s-7-0.4-7,8.5v12.5"/>
</g>
</svg>
