<?xml version="1.0" encoding="utf-8"?>
<!-- Generator: Adobe Illustrator 23.0.0, SVG Export Plug-In . SVG Version: 6.00 Build 0)  -->
<svg version="1.1" id="Слой_1" xmlns="http://www.w3.org/2000/svg" xmlns:xlink="http://www.w3.org/1999/xlink" x="0px" y="0px"
	 viewBox="0 0 42.9 42.3" style="enable-background:new 0 0 42.9 42.3;" xml:space="preserve">
<style type="text/css">
	.st0{fill:none;stroke:#D3D3D3;stroke-linecap:round;stroke-linejoin:round;}
</style>
<g>
	<path class="st0" d="M5.1,16.1c-1-0.5-3.1-1.7-3.5-2.5c-0.6-1-0.6-2.2,0-3.2c0.5-1,1.6-1.6,2.7-1.6c0.8,0,1.6,0.3,2.3,0.8
		c1.5,1,3.2,1.8,4.8,2.5c2.4,1.1,5,1.9,7.6,2.4c3.1,0.4,6.3,0.6,9.5,0.6c1.5,0,4-0.2,4.6,2.1s2.9,11.3,3.1,12.1s0.6,3.4-1.9,4.1
		c-1.6,0.6-3.4-0.2-4-1.7c0,0,0,0,0,0c-0.3-0.9-2.6-10.3-2.6-10.3c-3.7,0.1-7.4-0.3-11-1.1C12.7,19.3,8.8,17.9,5.1,16.1z"/>
	<path class="st0" d="M15.1,19.9l1.9,7.6h-4.6c-1.1,0-3.9,0.3-3.9,3c-0.1,1.6,1.1,3,2.7,3.1c0.2,0,0.3,0,0.5,0h8.6
		c1.3,0,3.3-0.4,3.5-2.6c0-1.1-0.1-2.2-0.5-3.2l-1.6-6.6"/>
	<line class="st0" x1="10.7" y1="11.8" x2="1.2" y2="33.6"/>
	<circle class="st0" cx="37.2" cy="14.9" r="4.5"/>
</g>
</svg>
