<?xml version="1.0" encoding="utf-8"?>
<!-- Generator: Adobe Illustrator 23.0.0, SVG Export Plug-In . SVG Version: 6.00 Build 0)  -->
<svg version="1.1" id="Слой_1" xmlns="http://www.w3.org/2000/svg" xmlns:xlink="http://www.w3.org/1999/xlink" x="0px" y="0px"
	 viewBox="0 0 42.9 42.3" style="enable-background:new 0 0 42.9 42.3;" xml:space="preserve">
<style type="text/css">
	.st0{fill:none;stroke:#D3D3D3;stroke-linecap:round;stroke-linejoin:round;}
</style>
<path class="st0" d="M24.9,8.1c1.4-0.4,3.2-0.8,4-0.5s0.9,0.4,1.6,3s0.8,4.2,1.6,5c0.7,0.8,1.4,0,1.8-0.5c0.6-0.9,1.5-1.5,2.5-1.8
	c1.8-0.5,3.7,0.6,4.2,2.4c0,0.1,0.1,0.3,0.1,0.4c0.6,1.8-0.4,3.7-2.2,4.3c-0.1,0-0.2,0-0.2,0.1c-2.2,0.3-3.3-1.1-4.3-0.8
	s-0.7,1.5-0.5,2.1s1.1,4.6,1.2,5.9c0.3,1-0.3,2.1-1.3,2.4c0,0,0,0,0,0c-2,0.5-3.9,1.1-5.8,1.9c-1.3,0.6-1.1,1.1-1,1.4
	c0.3,1,2,1.5,2.5,3.3c0.6,2-0.5,4.1-2.5,4.7c0,0-0.1,0-0.1,0c-1.9,0.4-3.7-0.7-4.2-2.5c-0.7-2.6,1-3.4,0.8-4.5s-1.4-1-2.1-0.8
	s-4,1.1-5.1,1.4s-2.4,0.3-2.8-1.5c-0.4-1.8-1.1-4.6-1.4-5.6s-0.7-1.5-1.4-1.3c-1.3,0.4-1.9,2.2-3.4,2.6c-1.9,0.4-3.8-0.8-4.2-2.7
	c0,0,0-0.1,0-0.1c-0.6-1.8,0.4-3.7,2.2-4.3c0.1,0,0.2,0,0.2-0.1c1.9-0.5,2.9,0.9,4.2,0.5c0.7-0.2,0.8-1.1,0.6-1.9
	c-0.2-0.8-1.3-5.1-1.5-5.9c-0.2-0.8,0.2-2.1,2.3-2.6s3.5-0.9,4.6-1.3s1.6-1.1,1.4-1.8s-1.7-1.4-2.5-3.3C13.2,4,13.8,1.8,16.5,1
	c1.6-0.5,3.4,0.4,3.9,2.1c0.1,0.3,0.1,0.5,0.1,0.8c0,1.8-0.8,3.4-0.5,4.4s1.4,0.7,2.3,0.5S23.5,8.5,24.9,8.1z"/>
</svg>
