<?xml version="1.0" encoding="utf-8"?>
<!-- Generator: Adobe Illustrator 23.0.0, SVG Export Plug-In . SVG Version: 6.00 Build 0)  -->
<svg version="1.1" id="Слой_1" xmlns="http://www.w3.org/2000/svg" xmlns:xlink="http://www.w3.org/1999/xlink" x="0px" y="0px"
	 viewBox="0 0 42.9 42.3" style="enable-background:new 0 0 42.9 42.3;" xml:space="preserve">
<style type="text/css">
	.st0{fill:none;stroke:#D3D3D3;stroke-linecap:round;stroke-linejoin:round;}
</style>
<g>
	<path class="st0" d="M9.4,29.8c0.4,1.7,1.2,4.9,1.5,5.9c0.5,2.6,2.9,4.5,5.5,4.3c2.3,0,5.2-1.1,8.8-2l9.3-2.5c1.3-0.4,5-1.8,5-5.8
		s-2.3-5.6-5-6.4s-5.5-0.7-7.5-1.5c-2.3-0.8-4-2.8-4.6-5.1C21.7,13.8,19,3.4,18.9,2.9s-0.2-0.8-1.3-0.5C16.2,2.7,4.4,5.9,3.8,6.1
		S3.1,6.2,3.4,7.2C3.6,8.1,9.4,29.8,9.4,29.8z"/>
	<path class="st0" d="M4.3,10.9c1.8,1.6,4.2,2.5,6.7,2.5c4.2,0,7.6-3.2,9-6.2"/>
	<path class="st0" d="M7.4,22.4c1.8,1.6,4.1,2.5,6.5,2.4c4.1,0,7.8-2.6,9.2-6.5"/>
	<path class="st0" d="M9.7,30.8c0,0,9.4-1.3,9.5,8.9"/>
	<path class="st0" d="M26.6,21.6c1.9,2,2.9,4.6,2.9,7.3c0,4.7-3.3,8-4.7,9.3"/>
</g>
</svg>
