<?xml version="1.0" encoding="utf-8"?>
<!-- Generator: Adobe Illustrator 23.0.0, SVG Export Plug-In . SVG Version: 6.00 Build 0)  -->
<svg version="1.1" id="Слой_1" xmlns="http://www.w3.org/2000/svg" xmlns:xlink="http://www.w3.org/1999/xlink" x="0px" y="0px"
	 viewBox="0 0 42.9 42.3" style="enable-background:new 0 0 42.9 42.3;" xml:space="preserve">
<style type="text/css">
	.st0{fill:none;stroke:#D3D3D3;stroke-linecap:round;stroke-linejoin:round;}
</style>
<g>
	<circle class="st0" cx="20.8" cy="10.8" r="3.2"/>
	<path class="st0" d="M14.5,12.7c-2.1-0.4-3.5-2.5-3.1-4.6c0.4-1.8,2-3.2,3.8-3.2c0.5,0,1.1,0.1,1.6,0.3c0-0.2,0-0.4,0-0.6
		c-0.1-2.2,1.6-4,3.7-4.1s4,1.6,4.1,3.7c0,0.1,0,0.3,0,0.4c0,0.3,0,0.5-0.1,0.8c1.8-1.2,4.2-0.8,5.5,1c1.2,1.8,0.8,4.2-1,5.5
		c-0.6,0.4-1.2,0.6-1.9,0.7l0,0c1.6,1.5,1.7,4,0.2,5.5c-1.5,1.6-4,1.7-5.5,0.2c-0.5-0.5-0.9-1.1-1.1-1.8l0,0
		c-0.3,2.1-2.4,3.6-4.5,3.2s-3.6-2.4-3.2-4.5C13,14.2,13.6,13.3,14.5,12.7z"/>
	<path class="st0" d="M20.5,16.6c0.1,1.6,0.1,3.2,0,4.8c-0.2,2.9,1,4.6,1.1,7.6c0.1,3-0.4,4.3-1.3,7.6c-0.6,1.7-0.7,3.5-0.3,5.3"/>
	<path class="st0" d="M21.6,28c0,0,0.1-3.8,5.6-4.3"/>
	<path class="st0" d="M21.6,30.7c-0.7-2.3-2.3-4.1-4.4-5.1"/>
	<path class="st0" d="M20.2,36.9c0,0,0.1-2.1-4.1-4"/>
	<path class="st0" d="M20.8,34.9c1.3-1.8,3.4-2.8,5.6-2.9"/>
	<path class="st0" d="M20,27.8c0,0,0.5-4.9-7-5C13.2,23.5,14.7,28.7,20,27.8z"/>
	<path class="st0" d="M23.5,24.9c0.9-2.2,3-3.6,5.3-3.7c4,0,4.6,0.6,4.6,0.6s-2.6,3.9-5.8,4.1S23.5,24.9,23.5,24.9z"/>
	<path class="st0" d="M23.2,32.9c0,0,1.5-3.7,4.7-3.7s7,2.6,7,2.6c-1.6,0.3-3.2,0.8-4.7,1.5C27.9,34.1,25.3,34,23.2,32.9z"/>
	<path class="st0" d="M18.8,34.6c0,0-0.6-4.1-3.9-5.1c-2.3-0.6-4.6-0.6-6.9,0C10.3,33.2,14.5,35.2,18.8,34.6z"/>
</g>
</svg>
