<?xml version="1.0" encoding="utf-8"?>
<!-- Generator: Adobe Illustrator 23.0.0, SVG Export Plug-In . SVG Version: 6.00 Build 0)  -->
<svg version="1.1" id="Слой_1" xmlns="http://www.w3.org/2000/svg" xmlns:xlink="http://www.w3.org/1999/xlink" x="0px" y="0px"
	 viewBox="0 0 42.9 42.3" style="enable-background:new 0 0 42.9 42.3;" xml:space="preserve">
<style type="text/css">
	.st0{fill:none;stroke:#D3D3D3;stroke-linecap:round;stroke-linejoin:round;}
</style>
<g>
	<path class="st0" d="M37.8,14.1l-5.9-1.6c-0.4-0.1-0.7-0.6-0.6-1c0,0,0,0,0,0l1.6-5.9"/>
	<path class="st0" d="M32.8,5.6L15,0.9c-0.6-0.2-1.2,0.2-1.3,0.8c0,0,0,0,0,0L5.1,33.9C5,34.4,5.3,35,5.9,35.2l23.5,6.2
		c0.6,0.2,1.2-0.2,1.3-0.8c0,0,0,0,0,0l7-26.5L32.8,5.6z"/>
	<line class="st0" x1="15.1" y1="15" x2="27.3" y2="18.3"/>
	<line class="st0" x1="14.4" y1="17.7" x2="25.5" y2="20.6"/>
	<line class="st0" x1="13.8" y1="20.3" x2="26.9" y2="23.8"/>
	<line class="st0" x1="13.1" y1="22.9" x2="21.4" y2="25.1"/>
	<rect x="20.5" y="31.5" class="st0" width="7.9" height="3.7"/>
</g>
</svg>
