<?xml version="1.0" encoding="utf-8"?>
<!-- Generator: Adobe Illustrator 23.0.0, SVG Export Plug-In . SVG Version: 6.00 Build 0)  -->
<svg version="1.1" id="Слой_1" xmlns="http://www.w3.org/2000/svg" xmlns:xlink="http://www.w3.org/1999/xlink" x="0px" y="0px"
	 viewBox="0 0 42.9 42.3" style="enable-background:new 0 0 42.9 42.3;" xml:space="preserve">
<style type="text/css">
	.st0{fill:none;stroke:#D3D3D3;stroke-linecap:round;stroke-linejoin:round;}
</style>
<g>
	<path class="st0" d="M29.3,14.8H15.4c-3.9,0-7.1-3.2-7.1-7.1c0-3.9,3.2-7.1,7.1-7.1h1.7"/>
	<path class="st0" d="M30.1,19.5c2.6-0.1,4.6-2.3,4.5-4.9c-0.1-2.4-2.1-4.4-4.5-4.5H15.4C14.1,10.1,13,9,13,7.7s1.1-2.4,2.4-2.4
		c0,0,0,0,0,0h1.7"/>
	<path class="st0" d="M13,24.2c-2.6,0-4.7-2.1-4.7-4.7c0-2.6,2.1-4.7,4.7-4.7"/>
	<path class="st0" d="M30.1,19.5c2.6,0.1,4.6,2.3,4.5,4.9c-0.1,2.4-2.1,4.4-4.5,4.5H14"/>
	<path class="st0" d="M13.1,24.2c-2.6,0.1-4.6,2.3-4.5,4.9c0.1,2.4,2.1,4.4,4.5,4.5h3.6c1.4,0,2.5,1.1,2.5,2.5c0,0,0,0,0,0v5.5"/>
	<path class="st0" d="M17.9,29c3.4,0,6.1,2.7,6.1,6.1v6.6"/>
	<line class="st0" x1="13.1" y1="24.2" x2="29.3" y2="24.2"/>
	<line class="st0" x1="30.1" y1="19.5" x2="14" y2="19.5"/>
</g>
</svg>
