<?xml version="1.0" encoding="utf-8"?>
<!-- Generator: Adobe Illustrator 23.0.0, SVG Export Plug-In . SVG Version: 6.00 Build 0)  -->
<svg version="1.1" id="Слой_1" xmlns="http://www.w3.org/2000/svg" xmlns:xlink="http://www.w3.org/1999/xlink" x="0px" y="0px"
	 viewBox="0 0 42.9 42.3" style="enable-background:new 0 0 42.9 42.3;" xml:space="preserve">
<style type="text/css">
	.st0{fill:none;stroke:#D3D3D3;stroke-linecap:round;stroke-linejoin:round;}
</style>
<g>
	<path class="st0" d="M10.2,2c0,0,0.3,3.8,2.9,5.5c2,1.2,4.5,0.8,6.2-0.8"/>
	<path class="st0" d="M12.7,7.3c1.2,2.3,1.9,4.9,2,7.5c0,8.6-5,10.3-5,15.7c-0.1,3.5,0.9,6.9,2.9,9.8"/>
	<path class="st0" d="M10.1,28.1c4.2-1.4,8.8,0.1,11.3,3.8"/>
	<path class="st0" d="M32.7,2c0,0-0.3,3.8-2.9,5.5c-2,1.1-4.5,0.8-6.1-0.8"/>
	<path class="st0" d="M30.1,7.3c-1.2,2.3-1.9,4.9-2,7.5c0,8.6,5,10.3,5,15.7c0.1,3.5-0.9,6.9-2.9,9.8"/>
	<path class="st0" d="M32.8,28.1c-4.2-1.4-8.8,0.1-11.3,3.8v8.4"/>
	<path class="st0" d="M22.1,19c-0.5-0.1-0.8-0.5-0.8-1c0-0.5,0.4-1,0.9-1c0.2,0,0.4,0.1,0.5,0.2"/>
	<path class="st0" d="M29.8,22.3c-4.9,3.9-11.8,3.9-16.8,0"/>
</g>
</svg>
